<svg width="518" height="518" viewBox="0 0 518 518" fill="none" xmlns="http://www.w3.org/2000/svg">
<rect width="518" height="518" fill="#190047"/>
<path d="M207.511 265.938C207.575 267.334 208.082 268.674 208.957 269.766C209.833 270.859 211.033 271.65 212.387 272.025C213.741 272.4 215.18 272.341 216.498 271.856C217.816 271.371 218.947 270.484 219.729 269.323C232.075 271.082 244.632 268.104 254.851 260.995C265.069 253.886 272.182 243.179 274.747 231.046C277.311 218.914 275.134 206.266 268.658 195.671C262.182 185.076 251.892 177.328 239.878 173.999C227.863 170.67 215.024 172.011 203.968 177.749C192.911 183.486 184.466 193.191 180.346 204.893C176.227 216.594 176.742 229.415 181.787 240.753C186.832 252.091 196.029 261.095 207.511 265.938ZM192.753 190.838C197.988 185.063 204.634 180.729 212.047 178.253C219.46 175.777 227.391 175.244 235.072 176.705C242.753 178.166 249.925 181.571 255.896 186.592C261.866 191.613 266.432 198.08 269.153 205.367C271.874 212.655 272.658 220.517 271.428 228.193C270.199 235.87 266.999 243.101 262.136 249.189C257.273 255.277 250.913 260.015 243.67 262.946C236.426 265.877 228.545 266.901 220.787 265.919C220.787 265.919 220.787 265.766 220.787 265.69C220.801 264.205 220.315 262.758 219.404 261.581C218.494 260.403 217.212 259.563 215.765 259.195C214.317 258.828 212.788 258.953 211.42 259.551C210.053 260.15 208.927 261.186 208.223 262.496C201.621 259.628 195.802 255.238 191.247 249.69C186.691 244.142 183.531 237.596 182.026 230.593C180.522 223.59 180.717 216.331 182.596 209.418C184.475 202.505 187.983 196.135 192.83 190.838H192.753ZM208.819 234.823C208.276 235.454 207.867 236.187 207.617 236.98C207.367 237.772 207.281 238.606 207.365 239.432C207.449 240.258 207.701 241.059 208.105 241.785C208.509 242.512 209.057 243.15 209.716 243.66C210.375 244.17 211.131 244.542 211.939 244.753C212.747 244.964 213.589 245.01 214.415 244.889C215.242 244.767 216.035 244.48 216.746 244.045C217.458 243.61 218.073 243.036 218.555 242.358C223.38 243.793 228.562 243.462 233.163 241.426C237.764 239.39 241.479 235.783 243.634 231.259C245.79 226.735 246.244 221.593 244.914 216.765C243.584 211.937 240.558 207.742 236.384 204.941C232.21 202.14 227.165 200.917 222.162 201.495C217.16 202.072 212.531 204.412 209.114 208.089C205.697 211.767 203.719 216.54 203.538 221.542C203.357 226.545 204.985 231.446 208.126 235.359L208.819 234.823ZM206.106 220.996C206.35 217.198 207.771 213.567 210.174 210.603C212.576 207.639 215.844 205.486 219.526 204.442C223.209 203.397 227.127 203.511 230.742 204.768C234.357 206.025 237.492 208.364 239.716 211.463C241.94 214.562 243.145 218.269 243.164 222.075C243.184 225.882 242.018 229.601 239.825 232.722C237.633 235.844 234.523 238.214 230.921 239.508C227.319 240.802 223.403 240.956 219.709 239.949C219.807 239.495 219.865 239.035 219.882 238.572C219.872 236.957 219.222 235.411 218.074 234.269C216.925 233.127 215.369 232.481 213.745 232.471C212.413 232.457 211.115 232.881 210.05 233.676C207.222 230.07 205.819 225.56 206.106 220.996ZM277.547 263.07C267.384 275.193 253.215 283.329 237.571 286.024C221.928 288.718 205.831 285.794 192.156 277.776C190.94 279.341 189.203 280.425 187.256 280.835C185.31 281.245 183.28 280.953 181.53 280.013C179.779 279.072 178.422 277.544 177.701 275.701C176.979 273.858 176.94 271.82 177.591 269.951C178.242 268.082 179.539 266.504 181.253 265.498C182.966 264.492 184.983 264.125 186.944 264.461C188.905 264.797 190.681 265.814 191.957 267.332C193.233 268.85 193.924 270.769 193.907 272.747C193.927 273.001 193.927 273.257 193.907 273.512C203.152 279.074 213.692 282.154 224.494 282.448C235.297 282.742 245.991 280.241 255.528 275.189C265.065 270.138 273.117 262.71 278.896 253.634C284.675 244.558 287.982 234.145 288.492 223.416C289.002 212.687 286.698 202.01 281.807 192.432C276.915 182.855 269.603 174.705 260.588 168.782C251.573 162.859 241.164 159.367 230.382 158.647C219.6 157.927 208.814 160.004 199.083 164.676L196.428 166.052C196.457 166.409 196.457 166.767 196.428 167.123C196.421 169.013 195.745 170.84 194.519 172.284C193.293 173.729 191.595 174.698 189.723 175.024C187.85 175.349 185.922 175.01 184.275 174.064C182.629 173.119 181.37 171.628 180.718 169.853C180.066 168.078 180.064 166.132 180.71 164.355C181.357 162.578 182.612 161.083 184.255 160.133C185.898 159.183 187.826 158.838 189.699 159.158C191.573 159.478 193.274 160.443 194.504 161.883C208.19 154.594 224.001 152.264 239.227 155.293C254.452 158.321 268.144 166.519 277.954 178.481C287.765 190.444 293.084 205.426 292.999 220.859C292.914 236.292 287.431 251.215 277.489 263.07H277.547ZM219.998 224.228C219.998 224.095 219.998 224.037 219.998 224.018C219.971 224.086 219.971 224.161 219.998 224.228ZM241.317 253.508C247.782 250.033 253.011 244.661 256.293 238.124C259.574 231.588 260.748 224.204 259.653 216.98C261.254 216.224 262.543 214.942 263.303 213.351C264.063 211.759 264.247 209.956 263.824 208.245C263.401 206.535 262.397 205.021 260.982 203.961C259.566 202.901 257.826 202.359 256.055 202.427C255.367 202.413 254.68 202.497 254.016 202.675C249.802 196.515 243.743 191.831 236.699 189.288C236.789 188.822 236.841 188.348 236.853 187.873C236.861 186.014 236.143 184.224 234.849 182.881C233.554 181.538 231.786 180.747 229.917 180.675C228.047 180.603 226.223 181.256 224.828 182.495C223.433 183.735 222.578 185.464 222.441 187.319C217.17 187.654 212.04 189.157 207.429 191.719C202.817 194.28 198.841 197.835 195.792 202.122C192.742 206.41 190.697 211.321 189.805 216.497C188.914 221.672 189.199 226.98 190.639 232.032C192.08 237.083 194.64 241.75 198.131 245.691C201.622 249.631 205.956 252.745 210.815 254.805C215.675 256.864 220.936 257.816 226.214 257.592C231.492 257.368 236.652 255.972 241.317 253.508ZM215.245 191.01C217.675 190.293 220.18 189.863 222.711 189.728C223.09 191.051 223.845 192.236 224.885 193.143C225.925 194.049 227.206 194.639 228.575 194.841C229.943 195.042 231.341 194.848 232.601 194.28C233.861 193.713 234.93 192.796 235.679 191.641C242.124 193.915 247.707 198.109 251.668 203.651C250.236 204.541 249.138 205.874 248.544 207.446C247.95 209.017 247.893 210.739 248.381 212.347C248.869 213.954 249.875 215.357 251.244 216.339C252.614 217.322 254.27 217.829 255.959 217.784C256.391 217.784 256.823 217.746 257.248 217.669C257.844 221.66 257.687 225.726 256.786 229.66C255.489 235.261 252.73 240.424 248.787 244.628C244.843 248.832 239.854 251.928 234.323 253.605C228.792 255.282 222.914 255.481 217.281 254.181C211.648 252.881 206.46 250.129 202.238 246.201C198.016 242.273 194.91 237.308 193.234 231.807C191.557 226.306 191.369 220.463 192.688 214.867C194.007 209.271 196.787 204.119 200.747 199.931C204.707 195.742 209.708 192.665 215.245 191.01ZM157.408 223.521C155.741 223.521 154.111 223.028 152.726 222.105C151.342 221.183 150.264 219.872 149.631 218.339C148.997 216.807 148.836 215.121 149.169 213.498C149.501 211.874 150.311 210.385 151.497 209.22C152.683 208.055 154.19 207.267 155.827 206.955C157.464 206.644 159.158 206.823 160.693 207.47C162.227 208.117 163.534 209.203 164.446 210.59C165.358 211.977 165.835 213.602 165.816 215.259C165.801 217.466 164.908 219.577 163.333 221.132C161.758 222.687 159.628 223.559 157.408 223.559V223.521ZM173.031 247.35C173.02 249.003 172.515 250.615 171.582 251.983C170.649 253.351 169.328 254.413 167.787 255.035C166.247 255.657 164.555 255.811 162.926 255.477C161.297 255.144 159.805 254.338 158.637 253.161C157.469 251.984 156.679 250.49 156.365 248.866C156.052 247.243 156.23 245.564 156.877 244.041C157.524 242.518 158.611 241.22 160 240.312C161.389 239.403 163.018 238.924 164.681 238.935C165.789 238.94 166.885 239.163 167.906 239.592C168.927 240.02 169.852 240.645 170.629 241.431C171.405 242.217 172.017 243.148 172.43 244.171C172.842 245.193 173.046 246.287 173.031 247.388V247.35ZM175.225 187.3C175.225 188.959 174.729 190.58 173.8 191.959C172.872 193.338 171.552 194.411 170.009 195.044C168.465 195.676 166.768 195.838 165.132 195.511C163.495 195.183 161.994 194.379 160.818 193.202C159.641 192.025 158.843 190.527 158.525 188.898C158.206 187.27 158.381 185.584 159.028 184.054C159.675 182.524 160.764 181.22 162.157 180.307C163.551 179.393 165.186 178.912 166.855 178.923C169.087 178.938 171.221 179.833 172.79 181.41C174.359 182.988 175.235 185.119 175.225 187.338V187.3Z" fill="url(#paint0_linear_1_4)"/>
<path d="M368.954 131.538C368.826 130.567 368.475 129.638 367.926 128.824C367.378 128.01 366.647 127.333 365.792 126.844C364.936 126.356 363.979 126.07 362.994 126.009C362.009 125.948 361.023 126.113 360.113 126.492C355.955 121.929 350.457 118.78 344.396 117.489C344.443 117.102 344.443 116.711 344.396 116.323C344.24 114.765 343.466 113.331 342.245 112.338C341.025 111.345 339.456 110.874 337.885 111.029C336.314 111.183 334.87 111.951 333.869 113.163C332.869 114.374 332.394 115.931 332.55 117.489C326.754 118.633 321.444 121.492 317.317 125.689C313.191 129.886 310.441 135.224 309.431 141.002C308.421 146.779 309.197 152.725 311.657 158.056C314.118 163.387 318.147 167.854 323.216 170.869C328.284 173.883 334.153 175.305 340.051 174.945C345.949 174.586 351.599 172.463 356.257 168.856C360.916 165.249 364.365 160.326 366.15 154.736C367.935 149.147 367.972 143.151 366.257 137.54C367.211 136.875 367.966 135.965 368.441 134.909C368.916 133.852 369.093 132.687 368.954 131.538ZM365.448 148.32C365.021 153.041 363.348 157.566 360.598 161.44C357.847 165.315 354.117 168.402 349.781 170.39C345.446 172.378 340.659 173.198 335.903 172.766C331.147 172.334 326.59 170.666 322.69 167.931C318.79 165.195 315.686 161.487 313.69 157.182C311.693 152.876 310.876 148.125 311.319 143.406C311.762 138.687 313.45 134.168 316.214 130.302C318.977 126.437 322.718 123.363 327.06 121.389C328.962 120.523 330.96 119.881 333.012 119.477C333.479 120.51 334.234 121.389 335.188 122.01C336.143 122.63 337.256 122.967 338.397 122.979C339.538 122.991 340.659 122.678 341.626 122.078C342.594 121.478 343.368 120.615 343.856 119.592C349.384 120.733 354.426 123.528 358.302 127.601C357.276 128.506 356.57 129.714 356.287 131.047C356.004 132.38 356.16 133.768 356.731 135.007C357.303 136.246 358.26 137.27 359.461 137.929C360.663 138.588 362.046 138.847 363.407 138.668C363.767 138.63 364.123 138.553 364.466 138.438C365.401 141.645 365.734 144.995 365.448 148.32Z" fill="url(#paint1_linear_1_4)"/>
<path d="M355 276.924C355 281.453 353.201 285.796 349.998 288.998C346.795 292.201 342.451 294 337.921 294C333.392 294 329.048 292.201 325.845 288.998C322.642 285.796 320.843 281.453 320.843 276.924V198.702C320.84 196.458 321.28 194.235 322.137 192.161C322.995 190.087 324.252 188.202 325.838 186.615C327.424 185.027 329.308 183.767 331.381 182.908C333.455 182.049 335.677 181.606 337.921 181.606C340.166 181.606 342.388 182.049 344.462 182.908C346.535 183.767 348.418 185.027 350.005 186.615C351.591 188.202 352.848 190.087 353.705 192.161C354.563 194.235 355.003 196.458 355 198.702V276.924ZM337.921 133C334.892 133 331.931 133.898 329.412 135.581C326.893 137.264 324.93 139.656 323.77 142.454C322.611 145.253 322.308 148.332 322.899 151.303C323.49 154.274 324.949 157.003 327.091 159.145C329.233 161.286 331.962 162.745 334.933 163.336C337.904 163.927 340.984 163.624 343.783 162.464C346.582 161.305 348.974 159.342 350.657 156.824C352.34 154.305 353.238 151.344 353.238 148.315C353.238 144.253 351.625 140.358 348.752 137.486C345.88 134.614 341.984 133 337.921 133ZM216.897 158.997C212.704 151.991 198.919 152.488 189.04 157.638C166.064 169.622 149.024 192.097 149.024 219.722C148.826 227.344 149.867 234.947 152.106 242.235C152.106 242.235 154.844 252.534 157.008 255.272C160.358 259.56 171.291 267.179 179.39 262.776C191.758 256.019 187.891 242.694 187.642 242.197C187.393 241.699 187.163 240.991 186.876 240.397L183.621 231.648C181.344 222.238 182.211 212.341 186.09 203.47C189.97 194.6 196.648 187.243 205.103 182.525C207.573 181.415 210.426 180.094 211.747 179.29C217.491 175.882 221.09 166.004 216.897 158.997ZM306.004 225.216C306.004 200.195 297.121 175.442 283.374 163.649C277.381 158.519 269.818 156.93 263.844 156.145C260.158 155.651 256.409 156.271 253.079 157.926C249.748 159.581 246.99 162.194 245.157 165.43C241.079 172.992 243.243 182.659 250.442 185.971C266.582 193.399 270.89 220.277 270.89 225.216C270.89 226.441 270.986 243.747 270.986 243.747V267.849C270.986 278.972 279.238 287.989 288.811 287.989C298.384 287.989 306.655 278.972 306.655 267.849C306.655 267.849 306.004 226.307 306.004 225.216Z" fill="url(#paint2_linear_1_4)"/>
<mask id="mask0_1_4" style="mask-type:luminance" maskUnits="userSpaceOnUse" x="149" y="132" width="207" height="162">
<path d="M355.463 276.883C355.463 281.423 353.66 285.777 350.45 288.987C347.24 292.197 342.886 294 338.346 294C333.807 294 329.453 292.197 326.243 288.987C323.033 285.777 321.23 281.423 321.23 276.883V198.475C321.227 196.226 321.668 193.998 322.527 191.919C323.386 189.84 324.646 187.951 326.236 186.359C327.826 184.768 329.714 183.505 331.792 182.644C333.87 181.782 336.097 181.339 338.346 181.339C340.596 181.339 342.823 181.782 344.901 182.644C346.979 183.505 348.867 184.768 350.457 186.359C352.047 187.951 353.307 189.84 354.166 191.919C355.025 193.998 355.466 196.226 355.463 198.475V276.883ZM338.346 132.617C335.31 132.617 332.342 133.517 329.818 135.204C327.293 136.891 325.325 139.289 324.164 142.094C323.002 144.899 322.698 147.986 323.29 150.964C323.882 153.941 325.344 156.677 327.491 158.824C329.638 160.971 332.374 162.433 335.352 163.025C338.329 163.617 341.416 163.313 344.221 162.152C347.026 160.99 349.424 159.022 351.111 156.497C352.798 153.973 353.698 151.005 353.698 147.969C353.698 143.897 352.081 139.992 349.202 137.113C346.323 134.234 342.418 132.617 338.346 132.617ZM217.05 158.676C212.848 151.653 199.031 152.152 189.13 157.314C166.102 169.326 149.024 191.855 149.024 219.545C148.826 227.185 149.869 234.806 152.113 242.112C152.113 242.112 154.857 252.436 157.026 255.18C160.384 259.478 171.341 267.116 179.458 262.702C191.854 255.928 187.978 242.572 187.729 242.073C187.479 241.575 187.249 240.865 186.961 240.27L183.699 231.5C181.417 222.068 182.286 212.147 186.174 203.255C190.062 194.363 196.755 186.989 205.23 182.26C207.705 181.147 210.564 179.823 211.888 179.017C217.645 175.601 221.253 165.7 217.05 158.676ZM306.358 225.052C306.358 199.972 297.454 175.16 283.676 163.339C277.67 158.197 270.09 156.604 264.103 155.817C260.409 155.322 256.651 155.944 253.313 157.602C249.975 159.261 247.21 161.88 245.374 165.124C241.286 172.704 243.455 182.394 250.67 185.714C266.847 193.16 271.164 220.102 271.164 225.052C271.164 226.281 271.26 243.628 271.26 243.628V267.787C271.26 278.936 279.531 287.975 289.126 287.975C298.72 287.975 307.01 278.936 307.01 267.787C307.01 267.787 306.358 226.146 306.358 225.052Z" fill="white"/>
</mask>
<g mask="url(#mask0_1_4)">
<path style="mix-blend-mode:color-burn" d="M319.215 61.8465C288.248 51.4245 254.886 50.4203 223.348 58.9609C191.811 67.5016 163.514 85.2034 142.038 109.827C120.562 134.451 106.871 164.891 102.697 197.297C98.5227 229.703 104.053 262.619 118.587 291.881C133.122 321.144 156.008 345.439 184.352 361.693C212.696 377.947 245.223 385.43 277.82 383.196C310.417 380.962 341.619 369.111 367.481 349.142C393.342 329.173 412.7 301.983 423.106 271.011C437.06 229.497 433.954 184.141 414.472 144.916C394.989 105.692 360.725 75.8115 319.215 61.8465ZM236.834 306.761C219.358 300.884 204.017 289.957 192.752 275.361C181.486 260.766 174.801 243.157 173.543 224.762C172.285 206.367 176.51 188.013 185.684 172.019C194.857 156.025 208.567 143.111 225.081 134.91C241.594 126.708 260.168 123.587 278.455 125.942C296.742 128.297 313.919 136.022 327.816 148.14C341.712 160.258 351.703 176.224 356.526 194.02C361.348 211.816 360.784 230.642 354.907 248.118C347.026 271.552 330.158 290.895 308.016 301.893C285.873 312.89 260.268 314.641 236.834 306.761Z" fill="url(#paint3_linear_1_4)"/>
<path style="mix-blend-mode:color-dodge" opacity="0.4" d="M293.194 122.965C265.056 113.499 234.743 112.59 206.088 120.353C177.433 128.115 151.724 144.201 132.211 166.575C112.699 188.949 100.259 216.607 96.4661 246.052C92.6729 275.496 97.6962 305.404 110.901 331.993C124.106 358.582 144.899 380.658 170.65 395.43C196.402 410.202 225.956 417.005 255.574 414.98C285.192 412.955 313.545 402.193 337.047 384.053C360.548 365.914 378.143 341.213 387.606 313.074C400.294 275.344 397.475 234.119 379.77 198.468C362.065 162.816 330.922 135.657 293.194 122.965ZM218.355 345.562C202.477 340.22 188.539 330.29 178.305 317.027C168.071 303.764 161.999 287.764 160.858 271.05C159.717 254.337 163.558 237.66 171.895 223.129C180.232 208.598 192.69 196.866 207.695 189.416C222.7 181.966 239.577 179.132 256.192 181.274C272.807 183.416 288.414 190.437 301.039 201.449C313.664 212.46 322.74 226.969 327.12 243.139C331.499 259.309 330.985 276.414 325.643 292.292C318.468 313.577 303.132 331.141 283.009 341.12C262.885 351.099 239.622 352.676 218.336 345.504L218.355 345.562Z" fill="url(#paint4_radial_1_4)"/>
<path style="mix-blend-mode:soft-light" d="M310.311 -39.4736C274.699 -51.4496 236.337 -52.5973 200.073 -42.7717C163.809 -32.9461 131.273 -12.5883 106.579 15.7275C81.8848 44.0433 66.1411 79.0455 61.3385 116.309C56.536 153.572 62.8904 191.422 79.5982 225.074C96.3061 258.725 122.617 286.667 155.204 305.367C187.792 324.066 225.192 332.683 262.676 330.127C300.16 327.572 336.045 313.959 365.793 291.011C395.541 268.062 417.817 236.808 429.803 201.2C437.764 177.551 440.988 152.566 439.291 127.671C437.594 102.777 431.009 78.4599 419.912 56.1104C408.816 33.7608 393.426 13.8162 374.62 -2.58428C355.814 -18.9848 333.962 -31.5199 310.311 -39.4736ZM215.553 242.227C195.45 235.469 177.802 222.9 164.842 206.112C151.882 189.323 144.191 169.068 142.743 147.909C141.295 126.749 146.154 105.635 156.706 87.2373C167.258 68.8394 183.028 53.9839 202.023 44.5494C221.019 35.1149 242.385 31.5252 263.42 34.2344C284.456 36.9436 304.215 45.8298 320.2 59.7694C336.185 73.709 347.677 92.0758 353.223 112.547C358.769 133.018 358.119 154.674 351.357 174.776C346.872 188.124 339.801 200.458 330.548 211.074C321.296 221.689 310.042 230.377 297.431 236.642C284.82 242.908 271.099 246.628 257.05 247.589C243.001 248.551 228.9 246.735 215.553 242.246V242.227Z" fill="url(#paint5_linear_1_4)"/>
</g>
<path d="M147.358 381L145.225 375.125H133.438L131.305 381H127.6L137.367 354.806H141.296L151.062 381H147.358ZM134.635 371.87H144.027L139.313 358.96L134.635 371.87ZM154.901 354.806H158.381V381H154.901V354.806Z" fill="white"/>
<path d="M177.778 376.061H187.769V381H172.614V354.806H177.778V376.061ZM209.021 381L207.449 376.285H197.009L195.438 381H189.862L199.03 354.806H205.429L214.634 381H209.021ZM198.656 371.458H205.84L202.248 360.756L198.656 371.458ZM226.962 381.524C224.043 381.524 221.648 380.701 219.777 379.054C217.906 377.408 216.97 375.2 216.97 372.431V354.806H222.097V372.019C222.097 373.391 222.484 374.476 223.257 375.275C224.055 376.073 225.29 376.472 226.962 376.472C228.633 376.472 229.855 376.073 230.629 375.275C231.427 374.476 231.826 373.391 231.826 372.019V354.806H236.99V372.431C236.99 375.2 236.055 377.408 234.184 379.054C232.313 380.701 229.905 381.524 226.962 381.524ZM257.546 354.806H262.71V381H258.781L247.555 364.984V381H242.391V354.806H246.32L257.546 370.784V354.806ZM280.741 381.524C276.799 381.524 273.543 380.214 270.974 377.595C268.404 374.975 267.12 371.745 267.12 367.903C267.12 364.036 268.404 360.806 270.974 358.211C273.543 355.592 276.799 354.282 280.741 354.282C283.11 354.282 285.293 354.843 287.289 355.966C289.31 357.064 290.881 358.56 292.004 360.456L287.551 363.038C286.902 361.866 285.979 360.955 284.782 360.307C283.584 359.633 282.237 359.296 280.741 359.296C278.196 359.296 276.138 360.095 274.566 361.691C273.02 363.288 272.246 365.358 272.246 367.903C272.246 370.423 273.02 372.481 274.566 374.077C276.138 375.674 278.196 376.472 280.741 376.472C282.237 376.472 283.584 376.148 284.782 375.499C286.004 374.826 286.927 373.915 287.551 372.768L292.004 375.35C290.881 377.246 289.322 378.755 287.326 379.877C285.331 380.975 283.135 381.524 280.741 381.524ZM310.818 354.806H315.944V381H310.818V370.148H301.089V381H295.925V354.806H301.089V365.209H310.818V354.806ZM331.325 354.806C333.845 354.806 335.965 355.654 337.687 357.351C339.408 359.047 340.269 361.13 340.269 363.6C340.269 366.069 339.408 368.152 337.687 369.849C335.965 371.545 333.845 372.393 331.325 372.393H326.723V381H321.559V354.806H331.325ZM331.325 367.566C332.423 367.566 333.334 367.192 334.057 366.444C334.78 365.67 335.142 364.722 335.142 363.6C335.142 362.452 334.78 361.504 334.057 360.756C333.334 360.007 332.423 359.633 331.325 359.633H326.723V367.566H331.325ZM358.55 381L356.979 376.285H346.539L344.967 381H339.391L348.559 354.806H354.958L364.163 381H358.55ZM348.185 371.458H355.37L351.777 360.756L348.185 371.458ZM377.858 354.806C381.45 354.806 384.444 356.066 386.839 358.585C389.259 361.105 390.469 364.211 390.469 367.903C390.469 371.595 389.259 374.701 386.839 377.221C384.444 379.74 381.45 381 377.858 381H367.455V354.806H377.858ZM377.858 376.061C380.128 376.061 381.974 375.312 383.396 373.815C384.818 372.294 385.529 370.323 385.529 367.903C385.529 365.483 384.818 363.525 383.396 362.028C381.974 360.506 380.128 359.745 377.858 359.745H372.619V376.061H377.858Z" fill="url(#paint6_linear_1_4)"/>
<defs>
<linearGradient id="paint0_linear_1_4" x1="255.382" y1="160.64" x2="185.467" y2="282.485" gradientUnits="userSpaceOnUse">
<stop stop-color="#FF5B91"/>
<stop offset="1" stop-color="#7C0EFF"/>
</linearGradient>
<linearGradient id="paint1_linear_1_4" x1="350.29" y1="115.343" x2="328.057" y2="173.046" gradientUnits="userSpaceOnUse">
<stop stop-color="#FF5B91"/>
<stop offset="1" stop-color="#7C0EFF"/>
</linearGradient>
<linearGradient id="paint2_linear_1_4" x1="149.024" y1="213.5" x2="355" y2="213.5" gradientUnits="userSpaceOnUse">
<stop stop-color="#FF5B91"/>
<stop offset="1" stop-color="#7C0EFF"/>
</linearGradient>
<linearGradient id="paint3_linear_1_4" x1="-186.724" y1="460.867" x2="455.012" y2="117.624" gradientUnits="userSpaceOnUse">
<stop stop-color="#BAF257"/>
<stop offset="0.17" stop-color="#D1C77D"/>
<stop offset="0.47" stop-color="#FF74C8"/>
<stop offset="0.55" stop-color="#FA75CA"/>
<stop offset="0.65" stop-color="#EB76CF"/>
<stop offset="0.76" stop-color="#D179D7"/>
<stop offset="0.87" stop-color="#AE7CE3"/>
<stop offset="1" stop-color="#8081F2"/>
</linearGradient>
<radialGradient id="paint4_radial_1_4" cx="0" cy="0" r="1" gradientUnits="userSpaceOnUse" gradientTransform="translate(245.361 265.237) rotate(18.59) scale(150.1 150.1)">
<stop offset="0.77"/>
<stop offset="1" stop-color="#575757"/>
</radialGradient>
<linearGradient id="paint5_linear_1_4" x1="-282.093" y1="425.086" x2="411.359" y2="54.1897" gradientUnits="userSpaceOnUse">
<stop stop-color="#AE7EFF"/>
<stop offset="0.26" stop-color="#D86CF2"/>
<stop offset="0.47" stop-color="#FF5BE6"/>
<stop offset="0.99" stop-color="#FFDE72"/>
</linearGradient>
<linearGradient id="paint6_linear_1_4" x1="-2799.36" y1="370.642" x2="1143.73" y2="370.642" gradientUnits="userSpaceOnUse">
<stop offset="0.18" stop-color="#A627DD"/>
<stop offset="0.98" stop-color="#E54CA8"/>
</linearGradient>
</defs>
</svg>
